<svg width="24" height="24" viewBox="0 0 24 24" fill="none" xmlns="http://www.w3.org/2000/svg">
<g opacity="0.75">
<path d="M2.40359 7.06079L12 11.8584L21.5964 7.06079C21.5609 6.44932 21.2929 5.87457 20.8474 5.45426C20.4019 5.03395 19.8125 4.79988 19.2 4.79999H4.79999C4.1875 4.79988 3.59813 5.03395 3.15261 5.45426C2.70708 5.87457 2.43912 6.44932 2.40359 7.06079Z" fill="#F9F9F9"/>
<path d="M21.6 9.74158L12 14.5416L2.39999 9.74158V16.8C2.39999 17.4365 2.65285 18.0469 3.10294 18.497C3.55302 18.9471 4.16347 19.2 4.79999 19.2H19.2C19.8365 19.2 20.447 18.9471 20.8971 18.497C21.3471 18.0469 21.6 17.4365 21.6 16.8V9.74158Z" fill="#F9F9F9"/>
</g>
</svg>
