<svg width="63" height="63" viewBox="0 0 63 63" fill="none" xmlns="http://www.w3.org/2000/svg">
<path fill-rule="evenodd" clip-rule="evenodd" d="M63 31.5C63 39.0376 60.3526 45.9568 55.9368 51.3785C48.6317 48.5968 40.1059 47 31 47C22.2118 47 13.964 48.4873 6.83233 51.0917C2.55533 45.7137 0 38.9053 0 31.5C0 14.103 14.103 0 31.5 0C48.897 0 63 14.103 63 31.5ZM31 51C39.0237 51 46.5019 52.3054 52.9661 54.5535C47.3406 59.794 39.7947 63 31.5 63C23.0742 63 15.4211 59.6918 9.7686 54.3035C16.0622 52.2089 23.2785 51 31 51ZM30.2208 39H26.5248V20.904H30.2208V31.32L34.1088 27H38.7408L34.2288 31.752L38.5968 39H34.3248L31.6368 34.512L30.2208 36V39ZM16.2478 27H18.5278V23.28H22.2238V27H24.5038V30.072H22.2238V39H18.5278V30.072H16.2478V27ZM41.7712 27H39.4912V30.072H41.7712V39H45.4672V30.072H47.7472V27H45.4672V23.28H41.7712V27Z" fill="#FF7A8A"/>
<path d="M16.2478 27H24.5038V30.072H16.2478V27ZM22.2238 39H18.5278V23.28H22.2238V39Z" fill="#103859"/>
<path d="M30.2208 39H26.5248V20.904H30.2208V31.32L34.1088 27H38.7408L34.2288 31.752L38.5968 39H34.3248L31.6368 34.512L30.2208 36V39Z" fill="#103859"/>
<path d="M39.4912 27H47.7472V30.072H39.4912V27ZM45.4672 39H41.7712V23.28H45.4672V39Z" fill="#103859"/>
</svg>
